<svg width="10" height="19" viewBox="0 0 10 19" fill="none" xmlns="http://www.w3.org/2000/svg">
<path d="M7.21775 3.75989H9.31785V0.74751H6.42312C5.90809 0.689977 5.38649 0.743535 4.89468 0.90445C4.40287 1.06537 3.95269 1.32977 3.57551 1.67922C3.19834 2.02868 2.90325 2.45478 2.71082 2.92782C2.51838 3.40086 2.43324 3.90945 2.46132 4.41815V6.4264H0.599609V9.51688H2.46132V18.2751H6.38907V9.51688H9.03405L9.37461 6.4264H6.38907V4.60782C6.37522 4.49609 6.38684 4.38274 6.42308 4.27597C6.45933 4.1692 6.51929 4.0717 6.59862 3.99052C6.67795 3.90935 6.77466 3.84654 6.88175 3.80665C6.98883 3.76676 7.10361 3.75079 7.21775 3.75989Z" fill="#777777"/>
</svg>
