<svg xmlns="http://www.w3.org/2000/svg" xmlns:xlink="http://www.w3.org/1999/xlink" version="1.1" style="" xml:space="preserve" width="562.6164426511882" height="77.95891427447918"><rect id="backgroundrect" width="100%" height="100%" x="0" y="0" fill="none" stroke="none"/>
<style type="text/css">
	.st0{fill:#A7A9AC;}
</style>








<g class="currentLayer" style=""><title>Layer 1</title><g class="" id="svg_18"><path class="st0" d="M184.3726028442383,7.954798126220709 h5.6 c1.7000000000000002,0 3.6,0.6000000000000002 3.6,5.3 v40.2 l-36.4,-50.3 h-19.7 v4.8 h6.1 c1.9,0 3.1,0 3.1,4.4 v52.5 c0,4.6 -1.9,5.2 -3.6,5.2 h-5.7 v4.8 h24 v-4.8 h-5.6 c-1.7000000000000002,0 -3.6,-0.6000000000000002 -3.6,-5.2 v-46.7 l42.1,56.7 h4.7 v-61.6 c0,-4.7 1.9,-5.3 3.6,-5.3 h5.7 v-4.8 h-24 V7.954798126220709 z" id="svg_1"/><path class="st0" d="M106.87260284423829,47.1547981262207 h-22.2 l11.1,-30.1 L106.87260284423829,47.1547981262207 zM127.07260284423828,65.45479812622071 l-24.3,-64.6 h-6.4 l-23.7,63 c-1.6,4.3 -3.8,6.2 -7.3,6.2 h-2.3 v4.8 h22.5 v-4.8 h-5.3 c-2,0 -3,-0.7000000000000002 -3,-2.1 c0,-1 0.3000000000000001,-2.1 0.8,-3.3 l4.5,-12.1 h26.2 l5.1,13.7 c0.4,1.1 0.8,2.1 0.8,2.8 c0,0.4 0,1.1 -2.2,1.1 h-6.2 v4.8 h29.1 v-4.8 h-2.7 C130.8726028442383,70.1547981262207 128.7726028442383,69.75479812622069 127.07260284423828,65.45479812622071 " id="svg_2"/><path class="st0" d="M57.77260284423828,46.75479812622069 c-3.6,23.3 -7.9,23.3 -13,23.3 H29.572602844238283 c-2,0 -3.1,0 -3.1,-4.3 v-53.5 c0,-4.4 1.2,-4.4 3.1,-4.4 h6.6 v-4.8 H4.072602844238283 v4.8 h6.1 c1.9,0 3.1,0 3.1,4.4 v53.5 c0,4.3 -1.1,4.3 -3.1,4.3 h-6.1 v4.8 h56.4 l2.2,-29 h-4.7 L57.77260284423828,46.75479812622069 z" id="svg_3"/><path class="st0" d="M234.7726028442383,12.3547981262207 c0,-4.4 0.7000000000000002,-4.4 2.6,-4.4 h7.7 c13.4,0 21.3,11.6 21.3,31.1 c0,22.9 -11.2,31.1 -21.7,31.1 h-6.8 c-2,0 -3.1,0 -3.1,-4.3 V12.3547981262207 zM247.67260284423827,3.254798126220706 h-35.3 v4.8 h6 c1.9,0 3.1,0 3.1,4.4 v53.5 c0,4.3 -1.1,4.3 -3.1,4.3 h-6 v4.8 h35 c10,0 18.4,-3.7 24.3,-10.8 c5.4,-6.4 8.4,-15.3 8.4,-25.1 c0,-9.7 -2.9,-18.6 -8.1,-25 C265.9726028442383,6.954798126220709 257.67260284423827,3.254798126220706 247.67260284423827,3.254798126220706 " id="svg_4"/><path class="st0" d="M465.7726028442383,22.054798126220703 c0,9.1 -5.4,14.4 -14.9,14.4 h-9.5 v-24.1 c0,-4.4 1.2,-4.4 3.1,-4.4 h8.3 C460.7726028442383,7.954798126220709 465.7726028442383,13.3547981262207 465.7726028442383,22.054798126220703 M481.17260284423827,61.0547981262207 c-0.8,7.9 -3.1,7.9 -3.9,7.9 c-1.6,0 -2.3,-4 -3,-8.2 c-0.3000000000000001,-1.9 -0.7000000000000002,-4.1 -1.2,-6.3 c-1.8,-7.4 -5.6,-12.2 -11.5,-14.7 c10.9,-2.1 17.5,-8.7 17.5,-17.7 c0,-11.6 -9.4,-18.9 -24.6,-18.9 H418.9726028442383 v4.8 h6 c1.9,0 3.1,0 3.1,4.4 v53.5 c0,4.3 -1.1,4.3 -3.1,4.3 h-6 v4.8 h31.6 v-4.8 h-6 c-2,0 -3.1,0 -3.1,-4.3 v-24.5 h6.7 c7.2,0 11.2,5.6 13.3,18.6 c1.4,8.4 3.4,15.9 12.7,15.9 c7.3,0 11.1,-4.7 11.8,-14.6 l0.1,-1.1 h-4.7 L481.17260284423827,61.0547981262207 z" id="svg_5"/><path class="st0" d="M512.9726028442383,12.3547981262207 c0,-4.4 0.7000000000000002,-4.4 2.6,-4.4 h7.7 c13.4,0 21.3,11.6 21.3,31.1 c0,22.9 -11.2,31.1 -21.7,31.1 h-6.8 c-2,0 -3.1,0 -3.1,-4.3 V12.3547981262207 zM550.0726028442383,14.054798126220703 c-5.8,-7.1 -14.2,-10.9 -24.1,-10.9 h-35.3 v4.8 h6 c1.9,0 3.1,0 3.1,4.4 v53.5 c0,4.3 -1.1,4.3 -3.1,4.3 h-6 v4.8 h35 c10,0 18.4,-3.7 24.3,-10.8 c5.4,-6.4 8.3,-15.3 8.3,-25.1 C558.1726028442383,29.3547981262207 555.3726028442383,20.45479812622071 550.0726028442383,14.054798126220703 " id="svg_6"/><path class="st0" d="M399.5726028442383,39.0547981262207 c0,20.3 -7.1,32.4 -19.1,32.4 c-12,0 -19.1,-12.1 -19.1,-32.4 c0,-20.2 7.1,-32.3 19.1,-32.3 C392.4726028442383,6.754798126220706 399.5726028442383,18.8547981262207 399.5726028442383,39.0547981262207 M380.4726028442383,1.8547981262207003 c-19.8,0 -32.6,14.6 -32.6,37.2 c0,22.6 12.8,37.2 32.6,37.2 c19.8,0 32.6,-14.6 32.6,-37.2 C413.17260284423827,16.45479812622071 400.37260284423826,1.8547981262207003 380.4726028442383,1.8547981262207003 " id="svg_7"/><path class="st0" d="M338.87260284423826,46.75479812622069 c-3.6,23.3 -7.9,23.3 -13,23.3 h-15.2 c-2,0 -3.1,0 -3.1,-4.3 v-53.5 c0,-4.4 1.2,-4.4 3.1,-4.4 h6.6 v-4.8 h-32.1 v4.8 h6.1 c1.9,0 3.1,0 3.1,4.4 v53.5 c0,4.3 -1.1,4.3 -3.1,4.3 h-6.1 v4.8 h56.4 l2.2,-29 h-4.7 L338.87260284423826,46.75479812622069 z" id="svg_8"/></g></g></svg>