<svg width="23" height="16" viewBox="0 0 23 16" fill="none" xmlns="http://www.w3.org/2000/svg">
<path d="M9.28714 11.0935V5.02895L15.0786 8.09045L9.28714 11.0935ZM22.0109 3.97595C21.9107 3.20159 21.6192 2.46438 21.1626 1.83095C20.8815 1.54385 20.5464 1.31509 20.1767 1.15782C19.8069 1.00054 19.4097 0.917835 19.0079 0.914451C16.0049 0.699951 11.5004 0.699951 11.5004 0.699951C11.5004 0.699951 6.99589 0.699951 3.99289 0.914451C3.18474 0.923864 2.41332 1.25347 1.84789 1.83095C1.39097 2.46418 1.0994 3.20148 0.999641 3.97595C0.863064 5.13465 0.788208 6.2998 0.775391 7.46645V9.06545C0.784588 10.2352 0.85619 11.4036 0.989891 12.5657C1.08965 13.3402 1.38122 14.0775 1.83814 14.7107C2.47894 15.3059 3.3137 15.6489 4.18789 15.676C5.92339 15.8417 11.5004 15.8905 11.5004 15.8905C11.5004 15.8905 16.0049 15.8905 19.0079 15.6662C19.8158 15.6557 20.5868 15.3263 21.1529 14.7497C21.6094 14.1163 21.901 13.3791 22.0011 12.6047C22.1395 11.4298 22.2144 10.2484 22.2254 9.06545V7.46645C22.2162 6.29672 22.1446 5.12831 22.0109 3.9662V3.97595Z" fill="#777777"/>
</svg>
