<svg width="19" height="19" viewBox="0 0 19 19" fill="none" xmlns="http://www.w3.org/2000/svg">
<path d="M18.6573 17.0015L14.2882 12.6318C16.5698 9.5379 16.3019 5.09825 13.5237 2.32025C12.027 0.824082 10.0375 0 7.92158 0C5.8055 0 3.81622 0.824082 2.32044 2.32025C0.824082 3.8168 0 5.80589 0 7.92158C0 10.0375 0.824082 12.0268 2.32044 13.5235C3.81641 15.0199 5.8057 15.8439 7.92197 15.8439C9.63461 15.8439 11.2759 15.2975 12.6334 14.2896L17.0015 18.6569C17.2227 18.8783 17.5167 19 17.8293 19C18.1429 19 18.4375 18.8775 18.6561 18.6579C18.8777 18.4369 18.9998 18.1429 19 17.8299C19.0002 17.5169 18.8785 17.2227 18.6573 17.0015ZM7.92158 2.34154C9.41189 2.34154 10.8131 2.92199 11.8673 3.97623C12.9194 5.02811 13.4989 6.42933 13.4989 7.92158C13.4989 9.41384 12.9194 10.8152 11.8671 11.8673C10.8133 12.9214 9.41208 13.5018 7.92158 13.5018C6.43128 13.5018 5.03007 12.9214 3.97584 11.8673C2.9218 10.8137 2.34135 9.41247 2.34135 7.92158C2.34135 6.43128 2.9218 5.03007 3.97584 3.97623C5.03026 2.92219 6.43148 2.34154 7.92158 2.34154Z" fill="#1D1D1D"/>
</svg>
